<svg width="88" height="51" viewBox="0 0 88 51" fill="none" xmlns="http://www.w3.org/2000/svg">
<path id="Vector" d="M87.0722 49.2232C83.939 50.0203 82.0013 49.2576 80.2629 46.6465C76.36 40.7991 72.0518 35.2197 67.8947 29.5372C67.3587 28.8019 66.8021 28.0805 66.1081 27.1666C61.1884 33.8042 56.2754 40.1257 51.6648 46.7015C50.0157 49.0514 48.2842 50.0752 45.2059 49.2438L63.7032 24.4181L46.4839 1.99729C49.4454 1.42011 51.4931 1.71557 53.3071 4.36787C57.313 10.2221 61.7312 15.7947 66.1356 21.6902C70.5676 15.8153 74.9308 10.2359 79.0535 4.43658C80.7095 2.08662 82.4891 1.19336 85.4644 2.05913C83.2106 5.04812 81.005 7.989 78.7855 10.9093C75.7897 14.8465 72.8488 18.8318 69.743 22.6865C68.6367 24.0608 68.8154 24.954 69.8049 26.2527C75.5492 33.8042 81.2248 41.4312 87.0722 49.2232ZM0.948348 24.0058C1.44308 21.5253 1.77289 18.9967 2.46002 16.5643C6.58275 1.83926 23.486 -4.283 35.0983 4.84198C41.9008 10.1947 43.5912 17.7393 43.2545 26.2458H4.91304C4.33586 41.5068 15.3229 50.7211 29.3265 46.0212C34.2394 44.3721 37.1322 40.5242 38.582 35.7144C39.3172 33.3026 40.5335 32.9247 42.801 33.6118C41.6397 39.631 39.008 44.6607 33.5111 47.8077C25.2656 52.5214 13.4952 50.996 7.30423 44.4477C3.64874 40.5998 2.09584 35.8106 1.40872 30.6365C1.30565 29.812 1.09264 29.0012 0.927734 28.1835C0.941477 26.791 0.948348 25.3984 0.948348 24.0058ZM4.98175 22.982H39.6333C39.4066 11.9468 32.5354 4.10676 23.1424 4.03805C12.8356 3.95559 5.42838 11.6101 4.98175 22.982Z" fill="black"/>
</svg>
