<svg width="51" height="51" viewBox="0 0 51 51" fill="none" xmlns="http://www.w3.org/2000/svg">
<g id="Figma" clip-path="url(#clip0_18_97)">
<path id="Vector" d="M17.1666 50.5481C21.7666 50.5481 25.4999 46.8147 25.4999 42.2147V33.8814H17.1666C12.5666 33.8814 8.83325 37.6147 8.83325 42.2147C8.83325 46.8147 12.5666 50.5481 17.1666 50.5481Z" fill="black"/>
<path id="Vector_2" d="M8.83325 25.5481C8.83325 20.9481 12.5666 17.2148 17.1666 17.2148H25.4999V33.8814H17.1666C12.5666 33.8814 8.83325 30.1481 8.83325 25.5481Z" fill="black"/>
<path id="Vector_3" d="M8.83325 8.88143C8.83325 4.28143 12.5666 0.548096 17.1666 0.548096H25.4999V17.2148H17.1666C12.5666 17.2148 8.83325 13.4814 8.83325 8.88143Z" fill="black"/>
<path id="Vector_4" d="M25.5 0.548096H33.8333C38.4333 0.548096 42.1667 4.28143 42.1667 8.88143C42.1667 13.4814 38.4333 17.2148 33.8333 17.2148H25.5V0.548096Z" fill="black"/>
<path id="Vector_5" d="M42.1667 25.5481C42.1667 30.1481 38.4333 33.8814 33.8333 33.8814C29.2333 33.8814 25.5 30.1481 25.5 25.5481C25.5 20.9481 29.2333 17.2148 33.8333 17.2148C38.4333 17.2148 42.1667 20.9481 42.1667 25.5481Z" fill="black"/>
</g>
<defs>
<clipPath id="clip0_18_97">
<rect width="50" height="50" fill="white" transform="translate(0.5 0.548096)"/>
</clipPath>
</defs>
</svg>
