<svg width="51" height="51" viewBox="0 0 51 51" fill="none" xmlns="http://www.w3.org/2000/svg">
<g id="Javascript" clip-path="url(#clip0_18_94)">
<path id="Vector" d="M0.5 0.548096H50.5V50.5481H0.5V0.548096Z" fill="black"/>
<path id="Vector_2" d="M13.6469 42.3317L17.4731 40.0161C18.2114 41.3249 18.8829 42.4323 20.4936 42.4323C22.0375 42.4323 23.0112 41.8284 23.0112 39.4792V23.503H27.7098V39.5456C27.7098 44.4122 24.8571 46.6274 20.695 46.6274C16.9362 46.6274 14.7543 44.6807 13.6467 42.3313M30.262 41.8282L34.0877 39.6132C35.095 41.2579 36.404 42.4661 38.7196 42.4661C40.6667 42.4661 41.9081 41.4926 41.9081 40.1501C41.9081 38.5391 40.6327 37.9684 38.4846 37.029L37.3102 36.5251C33.9202 35.0823 31.6715 33.2698 31.6715 29.4436C31.6715 25.9194 34.3565 23.2343 38.552 23.2343C41.5391 23.2343 43.6872 24.2749 45.2309 26.9934L41.5723 29.343C40.7667 27.8999 39.8944 27.3294 38.5518 27.3294C37.1756 27.3294 36.303 28.202 36.303 29.343C36.303 30.7526 37.1756 31.3235 39.1893 32.1962L40.3639 32.6995C44.3581 34.4114 46.6067 36.1565 46.6067 40.0831C46.6067 44.3124 43.284 46.628 38.8202 46.628C34.4571 46.628 31.6377 44.5471 30.2618 41.8284" fill="white"/>
</g>
<defs>
<clipPath id="clip0_18_94">
<rect width="50" height="50" fill="white" transform="translate(0.5 0.548096)"/>
</clipPath>
</defs>
</svg>
