<svg width="50" height="51" viewBox="0 0 50 51" xmlns="http://www.w3.org/2000/svg">
  <rect width="50" height="51" fill="transparent"/>
<g clip-path="url(#clip0_0_1)">
<rect width="1440" height="3854.05" transform="translate(-119 -2160)" fill="white"/>
<rect x="-119" y="-74.4519" width="1440" height="316" rx="8" fill="#B98FFF"/>
<rect x="-35" y="-24.4519" width="300" height="100" rx="8" fill="white"/>
<g clip-path="url(#clip1_0_1)">
<path d="M26.1374 50.5481L24.8061 50.0939C24.8061 50.0939 24.9686 43.3085 22.5332 42.821C20.9103 40.9377 22.7936 -37.0498 28.6374 42.5606C28.6374 42.5606 26.6249 43.5668 26.2666 45.2877C25.8791 46.9773 26.1374 50.5481 26.1374 50.5481Z" fill="black"/>
<path d="M26.1374 50.5481L24.8061 50.0939C24.8061 50.0939 24.9686 43.3085 22.5332 42.821C20.9103 40.9377 22.7936 -37.0498 28.6374 42.5606C28.6374 42.5606 26.6249 43.5668 26.2666 45.2877C25.8791 46.9773 26.1374 50.5481 26.1374 50.5481Z" fill="black"/>
<path d="M26.8521 43.9897C26.8521 43.9897 38.5083 36.3272 35.7813 20.3856C33.1521 8.79599 26.95 4.99599 26.2688 3.53557C25.5229 2.49599 24.8083 0.679321 24.8083 0.679321L25.2959 32.9189C25.2938 32.9502 24.2875 42.7877 26.8521 43.9897Z" fill="black"/>
<path d="M26.8521 43.9897C26.8521 43.9897 38.5083 36.3272 35.7813 20.3856C33.1521 8.79599 26.95 4.99599 26.2688 3.53557C25.5229 2.49599 24.8083 0.679321 24.8083 0.679321L25.2959 32.9189C25.2938 32.9502 24.2875 42.7877 26.8521 43.9897Z" fill="black"/>
<path d="M24.1249 44.4106C24.1249 44.4106 13.1833 36.9439 13.8333 23.7939C14.4499 10.6439 22.177 4.18351 23.6708 3.01476C24.6458 1.97726 24.677 1.58768 24.7416 0.548096C25.4229 2.00851 25.2937 22.3981 25.3916 24.8002C25.6833 34.0543 24.8729 42.6585 24.1249 44.4106Z" fill="black"/>
<path d="M24.1249 44.4106C24.1249 44.4106 13.1833 36.9439 13.8333 23.7939C14.4499 10.6439 22.177 4.18351 23.6708 3.01476C24.6458 1.97726 24.677 1.58768 24.7416 0.548096C25.4229 2.00851 25.2937 22.3981 25.3916 24.8002C25.6833 34.0543 24.8729 42.6585 24.1249 44.4106Z" fill="black"/>
</g>
</g>
<defs>
<clipPath id="clip0_0_1">
<rect width="1440" height="3854.05" fill="white" transform="translate(-119 -2160)"/>
</clipPath>
<clipPath id="clip1_0_1">
<rect width="50" height="50" fill="white" transform="translate(0 0.548096)"/>
</clipPath>
</defs>
</svg>
