<svg width="47" height="51" viewBox="0 0 47 51" fill="none" xmlns="http://www.w3.org/2000/svg">
<g id="Group">
<path id="Vector" d="M21.4527 1.08153C22.6925 0.371889 24.3073 0.368684 25.546 1.08153C31.7778 4.60282 38.0115 8.11858 44.2423 11.642C45.4142 12.3021 46.1981 13.6064 46.1862 14.9567V36.1422C46.1949 37.5484 45.3335 38.8838 44.0971 39.529C37.8858 43.0309 31.6777 46.537 25.4675 50.0389C24.2021 50.7624 22.5548 50.7067 21.329 49.9239C19.4668 48.8444 17.6015 47.7702 15.7391 46.6918C15.3586 46.4649 14.9296 46.2844 14.6609 45.9154C14.8984 45.5952 15.3231 45.5553 15.6683 45.4155C16.4456 45.1683 17.1595 44.7716 17.8736 44.3866C18.0541 44.263 18.2746 44.3104 18.4477 44.421C20.04 45.334 21.6183 46.2735 23.216 47.1778C23.5569 47.3745 23.902 47.1133 24.1933 46.9509C30.2885 43.506 36.3912 40.0741 42.4854 36.6281C42.7112 36.5195 42.836 36.2798 42.8177 36.0325C42.8219 29.0438 42.8187 22.054 42.8198 15.0654C42.8456 14.7847 42.6832 14.5267 42.4295 14.4118C36.2397 10.926 30.0531 7.43477 23.8644 3.94803C23.7572 3.87431 23.6302 3.83476 23.5001 3.83457C23.3699 3.83438 23.2428 3.87356 23.1354 3.94696C16.9467 7.43477 10.7612 10.9292 4.57247 14.4148C4.3196 14.5299 4.1499 14.7836 4.17999 15.0654C4.18106 22.054 4.17999 29.0438 4.17999 36.0335C4.16926 36.1542 4.19577 36.2753 4.25594 36.3805C4.31612 36.4856 4.40707 36.5698 4.51656 36.6217C6.16804 37.5582 7.82166 38.4882 9.47421 39.4215C10.4052 39.9226 11.5483 40.2203 12.574 39.8364C13.4792 39.5117 14.1136 38.5881 14.0964 37.627C14.1049 30.6791 14.0921 23.7302 14.1028 16.7834C14.0802 16.475 14.3727 16.2202 14.6726 16.2492C15.4661 16.2439 16.2607 16.2385 17.0542 16.2514C17.3855 16.2439 17.6134 16.576 17.5724 16.8867C17.5692 23.8786 17.581 30.8706 17.5671 37.8624C17.5692 39.7258 16.8037 41.7534 15.0801 42.6651C12.9567 43.7651 10.3322 43.5318 8.23444 42.4771C6.41842 41.5707 4.68537 40.5009 2.90158 39.5299C1.66199 38.8883 0.804904 37.5476 0.81363 36.1423V14.9567C0.80063 13.5784 1.61569 12.2505 2.82412 11.6C9.03436 8.09526 15.2435 4.58786 21.4527 1.08153Z" fill="black"/>
<path id="Vector_2" d="M26.8705 15.7569C29.5791 15.5825 32.4787 15.6536 34.916 16.9879C36.8031 18.0104 37.8493 20.1564 37.8826 22.2529C37.8299 22.5357 37.5343 22.6917 37.2643 22.6723C36.4785 22.6712 35.6924 22.683 34.9066 22.667C34.5732 22.6798 34.3795 22.3724 34.3376 22.0777C34.1118 21.0746 33.5648 20.0811 32.6206 19.5973C31.1713 18.8716 29.4907 18.9081 27.9103 18.9232C26.7566 18.9845 25.5159 19.0844 24.5384 19.7629C23.788 20.2768 23.5601 21.3143 23.8279 22.1498C24.0804 22.7498 24.773 22.9433 25.3396 23.1218C28.6037 23.9755 32.0627 23.8905 35.2645 25.014C36.5901 25.472 37.8869 26.3624 38.3406 27.7503C38.9342 29.6105 38.674 31.834 37.3505 33.3273C36.2773 34.5562 34.7141 35.2251 33.155 35.5884C31.081 36.0508 28.9286 36.0626 26.8223 35.8573C24.8417 35.6315 22.7806 35.1111 21.2517 33.7617C19.9442 32.6264 19.3056 30.8576 19.369 29.1504C19.3842 28.8621 19.6712 28.661 19.9474 28.6847C20.7388 28.6783 21.5302 28.6762 22.3216 28.6858C22.6376 28.6632 22.872 28.9363 22.8882 29.2342C23.0342 30.19 23.3934 31.1931 24.2268 31.7597C25.8352 32.7974 27.8533 32.7263 29.695 32.7554C31.2208 32.6877 32.9335 32.6672 34.1786 31.6588C34.8355 31.0836 35.0302 30.1212 34.8526 29.2934C34.6603 28.5944 33.9291 28.2687 33.3012 28.0557C30.0789 27.0364 26.5813 27.4063 23.3902 26.2536C22.0947 25.7958 20.8419 24.9301 20.3442 23.5992C19.6497 21.7155 19.9679 19.3855 21.4301 17.9426C22.8558 16.5073 24.9138 15.9547 26.8705 15.7569Z" fill="black"/>
</g>
</svg>
