<svg width="57" height="51" viewBox="0 0 57 51" fill="none" xmlns="http://www.w3.org/2000/svg">
<g id="Group">
<path id="Vector" d="M28.5 30.6465C31.3158 30.6465 33.5984 28.3639 33.5984 25.5481C33.5984 22.7323 31.3158 20.4497 28.5 20.4497C25.6842 20.4497 23.4016 22.7323 23.4016 25.5481C23.4016 28.3639 25.6842 30.6465 28.5 30.6465Z" fill="black"/>
<path id="Vector_2" d="M47.865 17.1402C46.8811 16.7824 45.8525 16.4247 44.7792 16.1116C45.0475 15.0383 45.2711 13.9649 45.45 12.9363C46.3892 7.03289 45.3605 2.87368 42.4983 1.26366C41.6486 0.771709 40.7094 0.548096 39.636 0.548096C36.5055 0.548096 32.5251 2.87368 28.5001 6.76455C24.475 2.87368 20.4947 0.548096 17.3641 0.548096C16.2908 0.548096 15.3516 0.771709 14.5019 1.26366C11.6396 2.9184 10.611 7.07761 11.5502 12.9363C11.7291 13.9649 11.9527 15.0383 12.221 16.1116C11.1477 16.4247 10.119 16.7377 9.13515 17.1402C3.54481 19.2869 0.503662 22.2386 0.503662 25.5481C0.503662 28.8576 3.58953 31.8093 9.13515 33.956C10.119 34.3138 11.1477 34.6715 12.221 34.9846C11.9527 36.0579 11.7291 37.1313 11.5502 38.1599C10.611 44.0633 11.6396 48.2225 14.5019 49.8325C15.3516 50.3245 16.2908 50.5481 17.3641 50.5481C20.5394 50.5481 24.5198 48.2225 28.5001 44.3316C32.5251 48.2225 36.5055 50.5481 39.636 50.5481C40.7094 50.5481 41.6486 50.3245 42.4983 49.8325C45.3605 48.1778 46.3892 44.0186 45.45 38.1599C45.2711 37.1313 45.0475 36.0579 44.7792 34.9846C45.8525 34.6715 46.8811 34.3585 47.865 33.956C53.4554 31.8093 56.4965 28.8576 56.4965 25.5481C56.4965 22.2386 53.4554 19.2869 47.865 17.1402ZM41.2461 3.49979C43.0797 4.57314 43.7058 7.88262 42.9455 12.5785C42.8114 13.5177 42.5877 14.5016 42.3194 15.5302C39.9938 14.9935 37.5341 14.6358 34.9402 14.4121C33.4196 12.2654 31.8543 10.3424 30.289 8.59818C33.5985 5.33343 36.9527 3.09729 39.6808 3.09729C40.2622 3.09729 40.7988 3.23146 41.2461 3.49979ZM36.2371 30.0204C35.4321 31.4515 34.4929 32.8826 33.509 34.3137C31.8543 34.4479 30.1995 34.4926 28.5001 34.4926C26.7559 34.4926 25.1012 34.4479 23.4911 34.3137C22.5072 32.8826 21.6128 31.4515 20.8078 30.0204C19.958 28.5445 19.153 27.0239 18.4375 25.5481C19.153 24.0722 19.958 22.5517 20.8078 21.0758C21.6128 19.6447 22.552 18.2136 23.5359 16.7824C25.1906 16.6483 26.8453 16.6036 28.5448 16.6036C30.289 16.6036 31.9437 16.6483 33.5538 16.7824C34.5377 18.2136 35.4321 19.6447 36.2371 21.0758C37.0868 22.5517 37.8919 24.0722 38.6074 25.5481C37.8471 27.0239 37.0868 28.4998 36.2371 30.0204ZM39.9491 28.5445C40.6199 30.1098 41.1566 31.6304 41.6486 33.151C40.128 33.5087 38.518 33.7771 36.8185 34.0007C37.3552 33.151 37.9366 32.2565 38.4285 31.3173C38.9652 30.3782 39.4571 29.439 39.9491 28.5445ZM28.5001 40.6644C27.4267 39.5016 26.3981 38.2493 25.4142 36.9524C26.4428 36.9971 27.4715 37.0418 28.5001 37.0418C29.5287 37.0418 30.5573 36.9971 31.586 36.9524C30.6021 38.2493 29.5734 39.5016 28.5001 40.6644ZM20.1817 33.956C18.4822 33.7324 16.8722 33.464 15.3516 33.1062C15.8436 31.6304 16.3802 30.0651 17.0511 28.4998C17.543 29.3942 18.035 30.3334 18.5716 31.2279C19.1083 32.2118 19.645 33.0615 20.1817 33.956ZM17.0511 22.5517C16.3802 20.9864 15.8436 19.4658 15.3516 17.9452C16.8722 17.5875 18.4822 17.3191 20.1817 17.0955C19.645 17.9452 19.0636 18.8397 18.5716 19.7789C18.035 20.718 17.543 21.6572 17.0511 22.5517ZM28.5001 10.4318C29.5734 11.5946 30.6021 12.8468 31.586 14.1438C30.5573 14.0991 29.5287 14.0544 28.5001 14.0544C27.4715 14.0544 26.4428 14.0991 25.4142 14.1438C26.3981 12.8468 27.4267 11.5946 28.5001 10.4318ZM38.4285 19.8236L36.8185 17.1402C38.518 17.3638 40.128 17.6322 41.6486 17.99C41.1566 19.4658 40.6199 21.0311 39.9491 22.5964C39.4571 21.6572 38.9652 20.718 38.4285 19.8236ZM14.0546 12.5785C13.2944 7.88262 13.9205 4.57314 15.7541 3.49979C16.2013 3.23146 16.738 3.09729 17.3194 3.09729C20.0028 3.09729 23.357 5.2887 26.7112 8.59818C25.1459 10.2976 23.5806 12.2654 22.06 14.4121C19.4661 14.6358 17.0063 15.0383 14.6808 15.5302C14.4124 14.5016 14.2335 13.5177 14.0546 12.5785ZM3.00813 25.5481C3.00813 23.4461 5.55733 21.21 10.0296 19.5553C10.9241 19.1975 11.908 18.8844 12.8919 18.6161C13.6074 20.8522 14.5019 23.2225 15.5752 25.5928C14.5019 27.9631 13.5627 30.2887 12.8919 32.5248C6.72012 30.7359 3.00813 28.0526 3.00813 25.5481ZM15.7541 47.5964C13.9205 46.5231 13.2944 43.2136 14.0546 38.5177C14.1888 37.5785 14.4124 36.5946 14.6808 35.566C17.0063 36.1027 19.4661 36.4604 22.06 36.6841C23.5806 38.8307 25.1459 40.7538 26.7112 42.498C23.4017 45.7628 20.0475 47.9989 17.3194 47.9989C16.738 47.9989 16.2013 47.8647 15.7541 47.5964ZM42.9455 38.5177C43.7058 43.2136 43.0797 46.5231 41.2461 47.5964C40.7988 47.8647 40.2622 47.9989 39.6808 47.9989C36.9974 47.9989 33.6432 45.8075 30.289 42.498C31.8543 40.7985 33.4196 38.8307 34.9402 36.6841C37.5341 36.4604 39.9938 36.0579 42.3194 35.566C42.5877 36.5946 42.7666 37.5785 42.9455 38.5177ZM46.9706 31.5409C46.0761 31.8987 45.0922 32.2118 44.1083 32.4801C43.3927 30.244 42.4983 27.8737 41.4249 25.5034C42.4983 23.1331 43.4375 20.8075 44.1083 18.5714C50.28 20.3603 53.992 23.0436 53.992 25.5481C53.992 27.6501 51.3981 29.8862 46.9706 31.5409Z" fill="black"/>
</g>
</svg>
