<svg width="80" height="72" viewBox="0 0 80 72" fill="black" xmlns="http://www.w3.org/2000/svg">
<path d="M26.8026 0.0925132C23.1344 0.562327 19.9361 1.52002 16.6835 3.1463C13.5936 4.68223 11.3529 6.29044 8.91352 8.72986C5.02852 12.6149 2.4084 17.1684 1.05317 22.4267C0.29424 25.3541 -0.103295 28.697 0.023193 31.2267C0.727914 45.5741 10.7928 57.2653 24.7065 59.8673C26.134 60.1203 26.2605 60.1926 26.8568 60.9154C27.2001 61.331 28.194 62.379 29.0794 63.2283C33.2535 67.294 38.9816 70.1852 44.8362 71.179C46.7335 71.5042 47.5467 71.5404 50.745 71.4681C56.1298 71.3416 59.1113 70.6188 63.6649 68.3601C72.5733 63.9511 78.6628 55.2053 79.9097 45.1224L80 44.3092L68.5799 44.255C62.2916 44.237 57.1417 44.2008 57.1237 44.1828C57.1237 44.1647 57.467 43.2973 57.9007 42.2674C59.1294 39.4123 60.1413 35.5093 60.1413 33.6119V33.0337H46.8239H33.4884L32.0067 35.3466L30.5069 37.6415L42.5233 37.6957C49.1368 37.7138 54.5397 37.768 54.5397 37.8041C54.5397 38.0932 53.6904 40.1713 53.0218 41.5084C51.7931 43.9478 50.5282 45.7368 48.5947 47.7425C43.7701 52.7117 38.313 55.1692 31.302 55.5486L28.9529 55.6751L28.5373 55.1511C27.9229 54.3741 26.2424 50.8505 25.7365 49.2423C24.8691 46.5499 24.6342 44.9417 24.6342 41.3458C24.6342 38.7618 24.7065 37.6596 24.9775 36.467C26.9472 27.3959 33.0728 20.3487 41.5656 17.3491C47.0949 15.3976 53.7988 15.5241 59.3282 17.7105C63.2493 19.2465 66.9175 21.8485 69.393 24.83C70.0435 25.6251 70.6037 26.1491 70.7483 26.0949C71.2542 25.8961 74.2357 23.7097 74.2357 23.529C74.2357 23.4387 73.5491 22.5352 72.7179 21.5413C68.5076 16.536 62.0929 12.8317 55.7504 11.7475L53.9795 11.4403L52.8773 10.1212C50.7631 7.55533 47.1853 4.79065 43.8243 3.09209C39.4514 0.905651 35.187 -0.0520511 29.9648 0.00215822C28.5192 0.00215822 27.1098 0.0563736 26.8026 0.0925132ZM33.8498 4.93521C36.9397 5.35082 40.1019 6.41693 42.8485 7.989C44.3122 8.82021 46.4806 10.3742 47.0046 10.9524C47.3118 11.2958 47.2937 11.3138 46.1915 11.4223C41.421 11.9644 35.9459 14.1147 32.1151 16.9697C26.0256 21.5233 21.996 27.8115 20.3878 35.2924C19.8277 37.8583 19.6831 43.2251 20.0987 45.8994C20.4962 48.3388 21.1106 50.6517 21.9057 52.6575C22.2671 53.5248 22.5201 54.2838 22.4658 54.3199C22.2129 54.5909 18.0388 52.5671 15.9065 51.1577C14.0634 49.947 11.3349 47.363 10.0158 45.6103C7.81126 42.683 6.13078 39.069 5.35378 35.5635C4.99238 33.9372 4.93817 33.1783 4.93817 30.1425C4.93817 25.2818 5.46219 22.9508 7.44987 18.8489C10.7747 12.0366 16.6293 7.32042 24.1644 5.38696C26.9833 4.68223 30.5972 4.50154 33.8498 4.93521ZM74.2357 49.2061C74.2357 49.5133 73.1877 51.9889 72.4107 53.4345C71.2 55.7835 70.0074 57.3375 67.821 59.524C65.7429 61.5839 63.2493 63.3367 60.6653 64.5474C57.4489 66.0472 54.9011 66.6254 50.9257 66.77C46.1372 66.9326 42.7943 66.2098 38.5479 64.1137C36.5783 63.1379 33.2535 60.8792 33.0909 60.4094C33.0547 60.2829 33.7052 60.1203 34.7172 59.9938C41.0416 59.1987 46.9685 56.1992 51.7389 51.3565L53.9072 49.1519L64.0805 49.1339C69.6641 49.1158 74.2357 49.1519 74.2357 49.2061Z" fill="black"/>
</svg>